<?xml version="1.0" encoding="utf-8"?>
<!-- Generator: Adobe Illustrator 22.1.0, SVG Export Plug-In . SVG Version: 6.00 Build 0)  -->
<svg version="1.1" id="Layer_1" xmlns="http://www.w3.org/2000/svg" xmlns:xlink="http://www.w3.org/1999/xlink" x="0px" y="0px"
	 viewBox="0 0 60 60" style="enable-background:new 0 0 60 60;" xml:space="preserve">
<style type="text/css">
	.st0{fill:#FFFFFF;}
</style>
<title>medicArtboard 33 copy 6</title>
<path class="st0" d="M57,14.5h-6V2.8c0-1.1-0.9-2-2-2s-2,0.9-2,2v11.6H13V2.8c0-1.1-0.9-2-2-2s-2,0.9-2,2v11.6H3c-1.1,0-2,0.9-2,2
	v40.7c0,1.1,0.9,2,2,2h54c1.1,0,2-0.9,2-2V16.5C59,15.4,58.1,14.5,57,14.5z M9,18.5v2.7c0,1.1,0.9,2,2,2s2-0.9,2-2v-2.7h34v2.7
	c0,1.1,0.9,2,2,2s2-0.9,2-2v-2.7h4v9.7H5v-9.7H9z M5,55.2v-23h50v23H5z"/>
</svg>
