<svg id="Layer_1" data-name="Layer 1" xmlns="http://www.w3.org/2000/svg" viewBox="0 0 270 270"><defs><style>.cls-1{fill:#fff;}</style></defs><title>slack-logo</title><path class="cls-1" d="M57.31,170.36A28.16,28.16,0,1,1,29.15,142.2H57.31Z"/><path class="cls-1" d="M71.49,170.36a28.16,28.16,0,1,1,56.31,0v70.49a28.16,28.16,0,0,1-56.31,0Z"/><path class="cls-1" d="M99.64,57.31A28.16,28.16,0,1,1,127.8,29.15V57.31Z"/><path class="cls-1" d="M99.64,71.49a28.16,28.16,0,1,1,0,56.31H29.15a28.16,28.16,0,0,1,0-56.31Z"/><path class="cls-1" d="M212.69,99.64a28.16,28.16,0,1,1,28.16,28.16H212.69Z"/><path class="cls-1" d="M198.51,99.64a28.16,28.16,0,1,1-56.31,0V29.15a28.16,28.16,0,0,1,56.31,0Z"/><path class="cls-1" d="M170.36,212.69a28.16,28.16,0,1,1-28.16,28.16V212.69Z"/><path class="cls-1" d="M170.36,198.51a28.16,28.16,0,1,1,0-56.31h70.49a28.16,28.16,0,0,1,0,56.31Z"/></svg>