<?xml version="1.0" encoding="utf-8"?>
<!-- Generator: Adobe Illustrator 22.1.0, SVG Export Plug-In . SVG Version: 6.00 Build 0)  -->
<svg version="1.1" id="Layer_1" xmlns="http://www.w3.org/2000/svg" xmlns:xlink="http://www.w3.org/1999/xlink" x="0px" y="0px"
	 viewBox="0 0 270 270" style="enable-background:new 0 0 270 270;" xml:space="preserve">
<style type="text/css">
	.st0{fill:#FFFFFF;}
</style>
<g>
	<g>
		<path class="st0" d="M57.3,170.4c0,15.5-12.7,28.2-28.2,28.2S1,185.9,1,170.4c0-15.5,12.7-28.2,28.2-28.2h28.2V170.4z"/>
		<path class="st0" d="M71.5,170.4c0-15.5,12.7-28.2,28.2-28.2s28.2,12.7,28.2,28.2v70.5c0,15.5-12.7,28.2-28.2,28.2
			s-28.2-12.7-28.2-28.2C71.5,240.8,71.5,170.4,71.5,170.4z"/>
	</g>
	<g>
		<path class="st0" d="M99.6,57.3c-15.5,0-28.2-12.7-28.2-28.2S84.1,1,99.6,1s28.2,12.7,28.2,28.2v28.2H99.6z"/>
		<path class="st0" d="M99.6,71.5c15.5,0,28.2,12.7,28.2,28.2s-12.7,28.2-28.2,28.2H29.2C13.7,127.8,1,115.1,1,99.6
			s12.7-28.2,28.2-28.2C29.2,71.5,99.6,71.5,99.6,71.5z"/>
	</g>
	<g>
		<path class="st0" d="M212.7,99.6c0-15.5,12.7-28.2,28.2-28.2S269,84.1,269,99.6s-12.7,28.2-28.2,28.2h-28.2V99.6z"/>
		<path class="st0" d="M198.5,99.6c0,15.5-12.7,28.2-28.2,28.2c-15.5,0-28.2-12.7-28.2-28.2V29.2c0-15.5,12.7-28.2,28.2-28.2
			c15.5,0,28.2,12.7,28.2,28.2V99.6z"/>
	</g>
	<g>
		<path class="st0" d="M170.4,212.7c15.5,0,28.2,12.7,28.2,28.2S185.9,269,170.4,269c-15.5,0-28.2-12.7-28.2-28.2v-28.2H170.4z"/>
		<path class="st0" d="M170.4,198.5c-15.5,0-28.2-12.7-28.2-28.2c0-15.5,12.7-28.2,28.2-28.2h70.5c15.5,0,28.2,12.7,28.2,28.2
			c0,15.5-12.7,28.2-28.2,28.2H170.4z"/>
	</g>
</g>
</svg>
